#!OML:ASF F:\VICON\USERDATA\INSTALL\rory3\rory3.ASF
:FULLY-SPECIFIED
:DEGREES
28
root -0.2603572235949001 17.774247675536433 3.016337599564981 5.155807710207257 1.205490290264497 1.5673535651698005
lfemur 3.9640666467882397 -0.7272181444068301 -26.030234263994927
ltibia 37.30428802296039
lfoot -5.770057136125654 -3.0175199479648875
ltoes -28.865691062196472
rfemur -47.17177666936583 -2.2869138319911664 22.392731795839747
rtibia 95.73583546511618
rfoot 1.2935159398506446 -3.347776076541105
rtoes 0.898173378540918
lowerback 16.33914335313678 -0.6552405949339223 -2.8864927279639545
upperback -0.9863839977557056 -1.3241408991427557 0.8947524173563052
thorax -10.057308887765123 -0.4538287531603876 3.2436212416678534
lowerneck -19.871254787049303 -3.4340677374476267 -1.7652107610054928
upperneck 12.928368959306393 -4.858122137626824 3.8185917118140917
head 7.387632939331253 -2.0273249265510835 0.9708563554790519
lclavicle 1.4919013992910225e-16 4.9547837989135355e-17
lhumerus -31.572910863971135 -14.620781394524036 96.07485792519303
lradius 117.62260488829816
lwrist 39.33440113073647
lhand -24.182158032581544 3.0767023374972133
lfingers 7.12502000000006
lthumb 2.300565095958005 32.961832639592764
rclavicle 1.4919013992910225e-16 4.9547837989135355e-17
rhumerus -59.59243883166414 10.66412230566354 -98.57708103876942
rradius 110.79313745057078
rwrist -17.50947282494304
rhand -19.16441043565045 35.76742185882561
rfingers 7.12502000000006
rthumb 7.145186251592005 10.305028618395273
29
root -0.26903801147929085 18.03180453837173 2.747737636695941 5.457633462106812 -0.23467721385205603 0.8454912513017345
lfemur 7.252696835966109 -0.3036894266132296 -25.553911891372987
ltibia 31.959643833569817
lfoot 4.214044801006713 -6.552334999450187
ltoes -29.980028492078414
rfemur -47.333568179810094 -0.25832369823076595 23.461042769355814
rtibia 84.79596430582535
rfoot 0.7328680162665515 -2.3888616468463475
rtoes -2.00137976010625
lowerback 15.471961412442845 -0.8223961380868902 -2.4558817970248166
upperback -1.2342958365349086 -1.4321625290956703 1.2771584935253115
thorax -9.927407012506011 -0.5155352697838061 3.329662085617218
lowerneck -19.77045475281216 -3.2195163191562557 -1.8388342295373825
upperneck 13.514397181628766 -4.539605166542115 3.5731544232482446
head 7.544324620435137 -1.8917575556762742 0.9383280575630892
lclavicle -1.9959576823293106e-16 -2.2051809478724592e-16
lhumerus -32.28175301459249 -14.428681809051389 95.40981105675364
lradius 118.01373334708683
lwrist 39.46839127853026
lhand -24.04512639029779 3.0233171641333865
lfingers 7.125020000000059
lthumb 2.4328111626055673 32.898660275205515
rclavicle -1.9959576823293106e-16 -2.2051809478724592e-16
rhumerus -61.440284079347165 10.209056178110146 -98.26636517766896
rradius 110.74948814568612
rwrist -17.400707277431263
rhand -19.208323151805725 36.06056181511752
rfingers 7.125020000000059
rthumb 7.102805372991971 10.421122990857043
30
root -0.27288803439405407 18.272056314444303 3.5116476925478484 5.838444150711288 -1.598584652085268 0.2763118296913909
lfemur 10.119275097475601 -0.19116482606209817 -25.239317078325044
ltibia 28.418153900189914
lfoot 14.188417229712496 -9.902378770999572
ltoes -27.86720357010422
rfemur -46.73583481929313 1.4670128117687675 24.54299433253628
rtibia 74.57785505264982
rfoot -0.052359185309867495 -0.9614358354806756
rtoes -5.839306157804483
lowerback 14.732648625691855 -0.9326248929282895 -1.9636334242879305
upperback -1.4864905980158882 -1.4669369993828694 1.610418370582837
thorax -9.836089970694175 -0.5421337822119799 3.392476580573947
lowerneck -19.675298080073304 -3.025781599679944 -1.8981264213378408
upperneck 13.988902109457303 -4.246468320481869 3.404401731175812
head 7.671087706695016 -1.7670851765915874 0.9235652922200902
lclavicle -1.5063197042826084e-16 -1.826052808406582e-16
lhumerus -33.443062518077184 -14.095238226963016 94.74592708772917
lradius 119.30456967945273
lwrist 39.200402658379396
lhand -23.76939903111611 2.74242790456055
lfingers 7.125020000000059
lthumb 2.6990235151152886 32.610953286219676
rclavicle -1.5063197042826084e-16 -1.826052808406582e-16
rhumerus -62.86775984126848 10.200668172759404 -97.92441077970919
rradius 111.95891427086863
rwrist -16.951903845053476
rhand -19.215297035460857 35.98816561863745
rfingers 7.125020000000059
rthumb 7.095792642344471 11.155017528924608
31
root -0.2731474118595871 18.457803166767228 4.120413138174608 6.292100369237306 -2.60613119829805 0.00913048401665284
lfemur 12.244084632518629 -0.9953944178441199 -25.481262896288754
ltibia 25.318339070214876
lfoot 22.323538881295388 -12.664897746120062
ltoes -24.22002754715004
rfemur -45.42282747458348 2.6758677621777203 24.947222246719495
rtibia 62.64618116199646
rfoot -0.2785896496885667 0.39310545252949947
rtoes -9.966634673889558
lowerback 14.125495632668688 -1.0173896109492664 -1.7189215596537888
upperback -1.6682055491156058 -1.5200693719603406 1.762594422147787
thorax -9.730933767971084 -0.5737245933244682 3.387375920402688
lowerneck -19.765230862728686 -2.920512244137177 -1.9546156811755566
upperneck 14.400165373673385 -4.058842581383076 3.185227729030216
head 7.816663566952988 -1.6963653616986316 0.8769289439731702
lclavicle -2.548008321832513e-16 -2.632635267524562e-16
lhumerus -34.510078198502136 -14.521367599023668 94.47793565980093
lradius 120.26788858615652
lwrist 38.567859089211524
lhand -23.612060263554426 2.369192608159171
lfingers 7.125020000000059
lthumb 2.8509825425737105 32.23976817518516
rclavicle -2.548008321832513e-16 -2.632635267524562e-16
rhumerus -64.21862702147618 9.596166733388841 -97.59969852622869
rradius 112.60758654358472
rwrist -16.42305895728668
rhand -19.497426256507616 35.784084041717065
rfingers 7.125020000000059
rthumb 6.8235747088009475 11.499357178573613
32
root -0.26910632316064337 18.580784418428525 5.370045240074113 6.55974148037026 -3.107709315751608 0.07155729946727618
lfemur 13.655661546516018 -2.1843150155660385 -26.08723429476038
ltibia 24.656189953766003
lfoot 27.28090559732659 -14.754467383202883
ltoes -20.156029750169772
rfemur -43.52580846540043 3.2767326585200727 24.89811862888157
rtibia 50.99667081103333
rfoot 0.017704941634709925 1.0004801416161344
rtoes -13.59563409152564
lowerback 13.644985067424583 -1.166688751054287 -1.6174546364925904
upperback -1.7925216103213695 -1.690744078919185 1.7955785017480204
thorax -9.610345605545323 -0.6614212015390678 3.370924952748513
lowerneck -19.90473750967433 -2.876598815680231 -2.004414139683492
upperneck 14.72716108756843 -3.9601276191771495 3.0352170760710244
head 7.949606354330507 -1.6629766324928514 0.8422439347922808
lclavicle -3.247233276876534e-16 -3.174047144866054e-16
lhumerus -34.9255371557289 -15.023343045462527 94.05046207980146
lradius 119.92156209846341
lwrist 37.53111868743011
lhand -23.666310609355886 1.834087274362295
lfingers 7.125020000000059
lthumb 2.7986964093687385 31.715921393063294
rclavicle -3.247233276876534e-16 -3.174047144866054e-16
rhumerus -65.19922487547211 8.506077627328844 -97.01007052972649
rradius 112.86597190438138
rwrist -16.051766451859827
rhand -19.530652136910533 35.855896093539286
rfingers 7.125020000000059
rthumb 6.791380797034906 11.693937982719744
33
root -0.2730445236239194 18.655447061838526 6.416837195779985 6.60827625183791 -3.284149572381695 0.3742236551952507
lfemur 13.996309597039819 -3.773960428609195 -27.220549340080215
ltibia 25.488104565399595
lfoot 29.822963318788847 -16.646181622311072
ltoes -16.712010734530235
rfemur -41.74596272929285 3.0406006541471693 24.697908907627546
rtibia 40.0436281742301
rfoot 0.9377255318479225 0.8297196361789423
rtoes -16.927823411253
lowerback 13.35913965405307 -1.3774628683257713 -1.7248228925632165
upperback -1.8618718069938005 -1.9906235655035607 1.6668917607930351
thorax -9.567784372142041 -0.8059810458213582 3.267340196478247
lowerneck -20.102016066386703 -2.9134750415624406 -2.063771188482796
upperneck 14.686611296567976 -3.9825374861472915 2.91896150213474
head 7.9714892644052755 -1.6799221402824702 0.8097934378666171
lclavicle -7.860305300526123e-16 -6.745962144546764e-16
lhumerus -35.69930948037234 -15.772994748110325 93.73683119372573
lradius 119.10138070697302
lwrist 36.65536754335849
lhand -23.810848857766626 1.3451291315100793
lfingers 7.125020000000057
lthumb 2.659267411704035 31.24011694183093
rclavicle -7.860305300526123e-16 -6.745962144546764e-16
rhumerus -66.25162192813622 7.32840913585542 -96.74124175053281
rradius 112.86478542838981
rwrist -16.067516792149256
rhand -19.58067305472412 35.3145193332211
rfingers 7.125020000000057
rthumb 6.743028160619301 11.747721038102059
34
root -0.27225920368523104 18.686595767356213 7.57302031868214 6.4479112730219175 -3.133361045601409 0.8517354424066115
lfemur 14.226268809674625 -5.305103478718639 -28.41612019992906
ltibia 28.370358337148474
lfoot 30.765603925933956 -18.235356417927207
ltoes -14.442734241204825
rfemur -40.2354426607611 2.1467037753333464 24.468036125827293
rtibia 32.02135360814228
rfoot 2.639531091356931 0.07713759842047807
rtoes -18.956148822429434
lowerback 13.20514891105245 -1.610175696657393 -1.9360808509873706
upperback -1.8029702259668947 -2.3430057524694448 1.4949965440751949
thorax -9.416880938527784 -0.9731069012741295 3.2395486274392966
lowerneck -20.288659712986785 -2.9515533439078485 -2.1093945046401292
upperneck 14.500203885531755 -3.9953453293124164 2.814733853996609
head 7.941852898522193 -1.6957183921644197 0.7795085075658306
lclavicle -1.0063242746410578e-15 -8.451702945433368e-16
lhumerus -36.17135845365256 -16.175083540573553 93.5724195954577
lradius 118.41674744907104
lwrist 35.98496387443114
lhand -24.105155111635874 0.8918258837548692
lfingers 7.125020000000057
lthumb 2.3751877666467847 30.7992793757981
rclavicle -1.0063242746410578e-15 -8.451702945433368e-16
rhumerus -66.88018802792774 6.372159404671693 -96.48947090659763
rradius 113.37313856589395
rwrist -16.07625527577152
rhand -19.666563312557994 34.720914567476775
rfingers 7.125020000000057
rthumb 6.660246487858111 11.716125303788962
